<?xml version="1.0" encoding="UTF-8" standalone="no"?>
<svg width="24px" height="24px" viewBox="0 0 24 24" xmlns="http://www.w3.org/2000/svg">
    <g stroke="none" stroke-width="1" fill="none" fill-rule="evenodd">
        <path d="M9,10.3 C9,8.58 10.58,7 12.3,7 L16,7 C18.76,7 21,9.24 21,12 C21,14.76 18.76,17 16,17 L12.3,17 C10.58,17 9,15.42 9,13.7" stroke="#E63946" stroke-width="2" stroke-linecap="round"/>
        <path d="M15,7 C15,4.79 13.21,3 11,3 L8,3 C5.24,3 3,5.24 3,8 C3,10.76 5.24,13 8,13 L11,13 C13.21,13 15,11.21 15,9" stroke="#E63946" stroke-width="2" stroke-linecap="round"/>
    </g>
</svg>