<?xml version="1.0" encoding="UTF-8" standalone="no"?>
<svg width="120px" height="60px" viewBox="0 0 120 60" xmlns="http://www.w3.org/2000/svg">
    <g stroke="none" stroke-width="1" fill="none" fill-rule="evenodd">
        <path d="M20,10 L60,10 C65.5228475,10 70,14.4771525 70,20 L70,40 C70,45.5228475 65.5228475,50 60,50 L20,50 C14.4771525,50 10,45.5228475 10,40 L10,20 C10,14.4771525 14.4771525,10 20,10 Z" fill="#E63946"/>
        <path d="M30,20 L30,40 L34,40 L34,32 L40,32 L45,40 L50,40 L44,31 C46.5,30 48,27.5 48,25 C48,22 45.5,20 42,20 L30,20 Z M34,24 L41,24 C42,24 44,24 44,26 C44,28 42,28 41,28 L34,28 L34,24 Z" fill="#FFFFFF"/>
        <path d="M55,20 L78,20 C81.3137085,20 84,22.6862915 84,26 L84,34 C84,37.3137085 81.3137085,40 78,40 L55,40 L55,20 Z" fill="#1D3557"/>
        <path d="M60,26 L60,34 L64,34 L64,26 L60,26 Z M68,26 L68,34 L72,34 L72,26 L68,26 Z M76,26 L76,34 L80,34 L80,26 L76,26 Z" fill="#FFFFFF"/>
    </g>
</svg>